<?xml version="1.0" encoding="UTF-8"?>
<svg xmlns="http://www.w3.org/2000/svg" xmlns:xlink="http://www.w3.org/1999/xlink" width="384pt" height="383.999986pt" viewBox="0 0 384 383.999986" version="1.2">
<defs>
<clipPath id="clip1">
  <path d="M 12.878906 32.09375 L 371.378906 32.09375 L 371.378906 112 L 12.878906 112 Z M 12.878906 32.09375 "/>
</clipPath>
<clipPath id="clip2">
  <path d="M 12.878906 152 L 371.378906 152 L 371.378906 232 L 12.878906 232 Z M 12.878906 152 "/>
</clipPath>
<clipPath id="clip3">
  <path d="M 12.878906 272 L 371.378906 272 L 371.378906 351.59375 L 12.878906 351.59375 Z M 12.878906 272 "/>
</clipPath>
</defs>
<g id="surface1">
<g clip-path="url(#clip1)" clip-rule="nonzero">
<path style=" stroke:none;fill-rule:nonzero;fill:rgb(100%,100%,100%);fill-opacity:1;" d="M 331.59375 111.167969 L 52.660156 111.167969 C 30.773438 111.167969 12.96875 93.378906 12.96875 71.503906 C 12.96875 49.640625 30.773438 31.851562 52.660156 31.851562 L 331.59375 31.851562 C 353.476562 31.851562 371.28125 49.640625 371.28125 71.503906 C 371.289062 93.378906 353.484375 111.167969 331.59375 111.167969 Z M 52.660156 45.082031 C 38.074219 45.082031 26.210938 56.933594 26.210938 71.503906 C 26.210938 86.074219 38.074219 97.929688 52.660156 97.929688 L 331.59375 97.929688 C 346.175781 97.929688 358.039062 86.074219 358.039062 71.503906 C 358.039062 56.933594 346.175781 45.082031 331.59375 45.082031 Z M 52.660156 45.082031 "/>
</g>
<g clip-path="url(#clip2)" clip-rule="nonzero">
<path style=" stroke:none;fill-rule:nonzero;fill:rgb(100%,100%,100%);fill-opacity:1;" d="M 331.59375 231.621094 L 52.660156 231.621094 C 30.773438 231.621094 12.96875 213.832031 12.96875 191.96875 C 12.96875 170.101562 30.773438 152.3125 52.660156 152.3125 L 331.59375 152.3125 C 353.476562 152.3125 371.28125 170.101562 371.28125 191.96875 C 371.289062 213.832031 353.484375 231.621094 331.59375 231.621094 Z M 52.660156 165.542969 C 38.074219 165.542969 26.210938 177.398438 26.210938 191.96875 C 26.210938 206.539062 38.074219 218.390625 52.660156 218.390625 L 331.59375 218.390625 C 346.175781 218.390625 358.039062 206.539062 358.039062 191.96875 C 358.039062 177.398438 346.175781 165.542969 331.59375 165.542969 Z M 52.660156 165.542969 "/>
</g>
<g clip-path="url(#clip3)" clip-rule="nonzero">
<path style=" stroke:none;fill-rule:nonzero;fill:rgb(100%,100%,100%);fill-opacity:1;" d="M 331.59375 352.082031 L 52.660156 352.082031 C 30.773438 352.082031 12.96875 334.292969 12.96875 312.429688 C 12.96875 290.566406 30.773438 272.773438 52.660156 272.773438 L 331.59375 272.773438 C 353.476562 272.773438 371.28125 290.566406 371.28125 312.429688 C 371.289062 334.292969 353.484375 352.082031 331.59375 352.082031 Z M 52.660156 285.996094 C 38.074219 285.996094 26.210938 297.851562 26.210938 312.421875 C 26.210938 326.992188 38.074219 338.84375 52.660156 338.84375 L 331.59375 338.84375 C 346.175781 338.84375 358.039062 326.992188 358.039062 312.421875 C 358.039062 297.851562 346.175781 285.996094 331.59375 285.996094 Z M 52.660156 285.996094 "/>
</g>
</g>
</svg>
