<?xml version="1.0" encoding="UTF-8"?>
<svg xmlns="http://www.w3.org/2000/svg" xmlns:xlink="http://www.w3.org/1999/xlink" width="384pt" height="383.999986pt" viewBox="0 0 384 383.999986" version="1.2">
<defs>
<clipPath id="clip1">
  <path d="M 73 96 L 310 96 L 310 365.976562 L 73 365.976562 Z M 73 96 "/>
</clipPath>
<clipPath id="clip2">
  <path d="M 209 20.226562 L 363.925781 20.226562 L 363.925781 177 L 209 177 Z M 209 20.226562 "/>
</clipPath>
<clipPath id="clip3">
  <path d="M 19 20.226562 L 174 20.226562 L 174 177 L 19 177 Z M 19 20.226562 "/>
</clipPath>
</defs>
<g id="surface1">
<g clip-path="url(#clip1)" clip-rule="nonzero">
<path style=" stroke:none;fill-rule:nonzero;fill:rgb(100%,100%,100%);fill-opacity:1;" d="M 303.90625 320.054688 C 299.332031 317.691406 294.191406 314.171875 292.914062 312.535156 C 285.3125 294.902344 281.265625 235.257812 280.339844 213.367188 C 280.265625 171.859375 258.199219 138.050781 223.476562 125.183594 C 221.5625 109.152344 207.882812 96.675781 191.335938 96.675781 C 174.804688 96.675781 161.117188 109.152344 159.207031 125.183594 C 124.417969 138.0625 102.339844 171.945312 102.347656 213.277344 C 101.683594 234.578125 98.417969 293.390625 91.359375 311.046875 C 89.945312 312.925781 83.96875 317.195312 78.554688 320.164062 C 74.738281 322.261719 72.820312 326.679688 73.898438 330.898438 C 74.980469 335.117188 78.785156 338.074219 83.140625 338.074219 L 155.183594 338.074219 C 159.417969 354.105469 173.996094 365.976562 191.335938 365.976562 C 208.683594 365.976562 223.261719 354.105469 227.496094 338.078125 L 299.539062 338.078125 C 303.941406 338.078125 307.769531 335.070312 308.804688 330.789062 C 309.847656 326.507812 307.824219 322.078125 303.90625 320.054688 Z M 191.335938 346.890625 C 184.722656 346.890625 178.925781 343.359375 175.691406 338.085938 L 206.992188 338.085938 C 203.761719 343.351562 197.964844 346.890625 191.335938 346.890625 Z M 108.714844 319 C 108.765625 318.886719 108.816406 318.777344 108.859375 318.664062 C 118.625 295.089844 121.160156 222.117188 121.421875 213.582031 C 121.421875 178.074219 140.996094 149.703125 171.289062 141.320312 C 175.882812 140.046875 178.832031 135.589844 178.199219 130.871094 C 178.117188 130.273438 178.054688 129.671875 178.054688 129.050781 C 178.054688 121.726562 184.011719 115.769531 191.335938 115.769531 C 198.660156 115.769531 204.625 121.726562 204.625 129.050781 C 204.625 129.660156 204.554688 130.253906 204.480469 130.84375 C 203.835938 135.566406 206.785156 140.046875 211.390625 141.320312 C 241.683594 149.703125 261.253906 178.074219 261.253906 213.582031 C 261.253906 213.714844 261.257812 213.847656 261.265625 213.980469 C 261.609375 222.214844 264.882812 293.683594 274.941406 319 Z M 108.714844 319 "/>
</g>
<path style=" stroke:none;fill-rule:nonzero;fill:rgb(100%,100%,100%);fill-opacity:1;" d="M 219.003906 71.082031 C 213.878906 70.976562 209.375 75.152344 209.269531 80.421875 C 209.15625 85.695312 213.332031 90.050781 218.597656 90.164062 C 259.929688 91.035156 293.546875 125.375 293.546875 166.714844 C 293.546875 171.980469 297.8125 176.25 303.082031 176.25 C 308.355469 176.25 312.625 171.980469 312.625 166.714844 C 312.625 115.066406 270.628906 72.167969 219.003906 71.082031 Z M 219.003906 71.082031 "/>
<path style=" stroke:none;fill-rule:nonzero;fill:rgb(100%,100%,100%);fill-opacity:1;" d="M 89.140625 166.707031 C 89.140625 125.375 122.757812 91.035156 164.082031 90.160156 C 169.347656 90.042969 173.53125 85.6875 173.414062 80.414062 C 173.304688 75.148438 169.019531 70.949219 163.675781 71.074219 C 112.050781 72.167969 70.054688 115.070312 70.054688 166.707031 C 70.054688 171.976562 74.324219 176.246094 79.597656 176.246094 C 84.863281 176.246094 89.140625 171.976562 89.140625 166.707031 Z M 89.140625 166.707031 "/>
<g clip-path="url(#clip2)" clip-rule="nonzero">
<path style=" stroke:none;fill-rule:nonzero;fill:rgb(100%,100%,100%);fill-opacity:1;" d="M 218.929688 20.226562 L 218.800781 20.226562 C 213.59375 20.226562 209.332031 24.414062 209.265625 29.640625 C 209.195312 34.914062 213.414062 39.242188 218.679688 39.3125 C 287.992188 40.234375 344.382812 97.386719 344.382812 166.707031 C 344.382812 171.976562 348.660156 176.246094 353.925781 176.246094 C 359.199219 176.246094 363.46875 171.976562 363.46875 166.707031 C 363.46875 87 298.628906 21.292969 218.929688 20.226562 Z M 218.929688 20.226562 "/>
</g>
<g clip-path="url(#clip3)" clip-rule="nonzero">
<path style=" stroke:none;fill-rule:nonzero;fill:rgb(100%,100%,100%);fill-opacity:1;" d="M 164.003906 39.3125 C 169.273438 39.242188 173.492188 34.914062 173.421875 29.640625 C 173.347656 24.375 168.949219 20.082031 163.753906 20.226562 C 84.046875 21.292969 19.207031 87 19.207031 166.707031 C 19.207031 171.976562 23.476562 176.246094 28.75 176.246094 C 34.015625 176.246094 38.289062 171.976562 38.289062 166.707031 C 38.289062 97.386719 94.6875 40.234375 164.003906 39.3125 Z M 164.003906 39.3125 "/>
</g>
</g>
</svg>
