<?xml version="1.0" encoding="UTF-8"?>
<svg xmlns="http://www.w3.org/2000/svg" xmlns:xlink="http://www.w3.org/1999/xlink" width="384pt" height="383.999986pt" viewBox="0 0 384 383.999986" version="1.2">
<defs>
<clipPath id="clip1">
  <path d="M 5.058594 21.371094 L 380.058594 21.371094 L 380.058594 361.871094 L 5.058594 361.871094 Z M 5.058594 21.371094 "/>
</clipPath>
</defs>
<g id="surface1">
<g clip-path="url(#clip1)" clip-rule="nonzero">
<path style=" stroke:none;fill-rule:nonzero;fill:rgb(100%,100%,100%);fill-opacity:1;" d="M 380.058594 342.972656 C 376.34375 332.414062 372.109375 324.035156 367.292969 319.226562 C 340.394531 292.328125 293.644531 294.660156 249.746094 254.679688 C 250.011719 254.351562 239.613281 244.539062 239.222656 244.929688 L 239.222656 219.6875 C 250.996094 203.277344 258.828125 181.003906 263.441406 158.839844 C 263.914062 159.84375 264.523438 160.539062 265.265625 160.660156 C 268.011719 161.132812 271.457031 154.824219 272.914062 146.542969 C 274.332031 138.535156 273.34375 131.753906 270.78125 130.875 C 274.695312 111.433594 272.667969 80.390625 264.648438 56.480469 C 256.550781 32.265625 221.484375 22.183594 194.257812 21.445312 L 194.257812 21.40625 C 194.175781 21.40625 194.117188 21.40625 194.03125 21.40625 C 193.578125 21.40625 193.171875 21.40625 192.742188 21.40625 C 192.679688 21.40625 192.621094 21.40625 192.554688 21.40625 C 192.492188 21.40625 192.433594 21.40625 192.371094 21.40625 C 191.941406 21.40625 191.523438 21.40625 191.078125 21.40625 C 190.988281 21.40625 190.925781 21.40625 190.84375 21.40625 L 190.84375 21.445312 C 163.621094 22.183594 128.5625 32.265625 120.472656 56.480469 C 112.445312 80.390625 110.425781 111.433594 114.332031 130.875 C 111.757812 131.753906 110.785156 138.535156 112.199219 146.542969 C 113.664062 154.824219 117.089844 161.132812 119.847656 160.660156 C 120.59375 160.539062 121.191406 159.84375 121.671875 158.839844 C 126.285156 181.003906 134.128906 203.277344 145.886719 219.6875 L 145.886719 244.929688 C 145.496094 244.539062 135.089844 254.351562 135.367188 254.679688 C 91.476562 294.660156 44.726562 292.328125 17.828125 319.226562 C 13.007812 324.035156 8.769531 332.414062 5.058594 342.972656 L 5.058594 361.847656 L 380.058594 361.847656 L 380.058594 342.972656 "/>
</g>
</g>
</svg>
