<?xml version="1.0" encoding="UTF-8"?>
<svg xmlns="http://www.w3.org/2000/svg" xmlns:xlink="http://www.w3.org/1999/xlink" width="384pt" height="383.999986pt" viewBox="0 0 384 383.999986" version="1.2">
<defs>
<clipPath id="clip1">
  <path d="M 9.242188 208.140625 L 195.226562 208.140625 L 195.226562 345.871094 L 9.242188 345.871094 Z M 9.242188 208.140625 "/>
</clipPath>
<clipPath id="clip2">
  <path d="M 192 208.140625 L 374.519531 208.140625 L 374.519531 345.871094 L 192 345.871094 Z M 192 208.140625 "/>
</clipPath>
<clipPath id="clip3">
  <path d="M 109 38.398438 L 275 38.398438 L 275 282 L 109 282 Z M 109 38.398438 "/>
</clipPath>
</defs>
<g id="surface1">
<g clip-path="url(#clip1)" clip-rule="nonzero">
<path style=" stroke:none;fill-rule:nonzero;fill:rgb(98.039246%,98.039246%,98.039246%);fill-opacity:1;" d="M 9.242188 304.707031 L 127.089844 208.839844 L 195.210938 225.457031 L 193.703125 345.871094 L 9.242188 304.707031 "/>
</g>
<g clip-path="url(#clip2)" clip-rule="nonzero">
<path style=" stroke:none;fill-rule:nonzero;fill:rgb(91.369629%,91.369629%,91.369629%);fill-opacity:1;" d="M 374.515625 304.707031 L 256.667969 208.839844 L 192.023438 224.613281 L 193.703125 345.871094 L 374.515625 304.707031 "/>
</g>
<path style=" stroke:none;fill-rule:nonzero;fill:rgb(100%,100%,100%);fill-opacity:1;" d="M 122.570312 330 L 116.992188 328.753906 L 154.683594 269.445312 L 192.042969 278.742188 L 246.660156 266.371094 L 218.617188 227.597656 L 267.074219 217.304688 L 272.238281 221.351562 L 227.210938 230.914062 L 255.183594 269.589844 L 191.992188 283.902344 L 157.023438 275.210938 L 122.570312 330 "/>
<g clip-path="url(#clip3)" clip-rule="nonzero">
<path style=" stroke:none;fill-rule:nonzero;fill:rgb(92.939758%,10.978699%,14.118958%);fill-opacity:1;" d="M 260.554688 165.941406 L 260.542969 165.941406 C 269.117188 152.945312 274.121094 137.378906 274.121094 120.636719 C 274.121094 75.210938 237.363281 38.402344 192.019531 38.402344 C 146.671875 38.402344 109.917969 75.210938 109.917969 120.636719 C 109.917969 137.378906 114.921875 152.945312 123.503906 165.941406 L 123.488281 165.941406 L 123.769531 166.355469 C 123.875 166.5 123.964844 166.648438 124.066406 166.804688 L 192.019531 281.320312 L 259.972656 166.804688 C 260.074219 166.648438 260.175781 166.5 260.269531 166.355469 L 260.554688 165.941406 "/>
</g>
<path style=" stroke:none;fill-rule:nonzero;fill:rgb(100%,100%,100%);fill-opacity:1;" d="M 236.027344 122.164062 C 236.027344 146.492188 216.324219 166.242188 192.019531 166.242188 C 167.71875 166.242188 148.019531 146.492188 148.019531 122.164062 C 148.019531 97.820312 167.71875 78.082031 192.019531 78.082031 C 216.324219 78.082031 236.027344 97.820312 236.027344 122.164062 "/>
</g>
</svg>
